<svg width="68" height="68" viewBox="0 0 68 68" fill="none" xmlns="http://www.w3.org/2000/svg">
<rect width="68" height="68" rx="14" fill="#3F59FF"/>
<path d="M16.1645 29.1899V27.176H8V29.1899H11.1887V40.8631H12.9758V29.1899H16.1645Z" fill="white"/>
<path d="M19.4807 40.8631V35.0363H23.9659V40.8631H25.7705V27.176H17.6936V40.8631H19.4807ZM19.4807 29.1899H23.9659V33.0223H19.4807V29.1899Z" fill="white"/>
<path d="M35.3426 34.7821H27.5109V27.176H37.1472V29.1704H29.298V32.7877H37.1472V40.8631H27.5109V38.8687H35.3426V34.7821Z" fill="white"/>
<path d="M50.2989 27L40.6977 31.8687V27.176H38.8931V40.8631H40.6977V36.1508L50.2989 41V38.6927L41.0481 34L50.2989 29.2877V27Z" fill="white"/>
<path d="M53.8678 40.8631V37.1676H54.9541L57.6172 40.8631H60L57.0566 36.8156C57.6172 36.5615 58.1428 36.2095 58.5808 35.7207C59.4393 34.7626 59.8949 33.5112 59.8949 32.162C59.8949 30.852 59.4393 29.5615 58.5808 28.6425C57.7048 27.7235 56.6186 27.176 55.4096 27.176H52.0282V40.8631H53.8678ZM53.8678 29.2291H55.4096C56.8638 29.2291 58.0728 30.5196 58.0728 32.162C58.0728 33.7849 56.8638 35.1145 55.4096 35.1145H53.8678V29.2291Z" fill="white"/>
</svg>
